<?xml version="1.0" encoding="utf-8"?>
<!-- Generator: Adobe Illustrator 26.5.0, SVG Export Plug-In . SVG Version: 6.00 Build 0)  -->
<svg version="1.1" id="Layer_1" xmlns="http://www.w3.org/2000/svg" xmlns:xlink="http://www.w3.org/1999/xlink" x="0px" y="0px" viewBox="0 0 143.1 110" style="enable-background:new 0 0 143.1 110;" xml:space="preserve">
  <style type="text/css">
	.st0{fill:url(#SVGID_1_);}
	.st1{fill:none;}
	.st2{enable-background:new    ;}
	.st3{fill:#FFFFFF;}
	.st4{fill-rule:evenodd;clip-rule:evenodd;fill:#1E234F;}
	.st5{fill-rule:evenodd;clip-rule:evenodd;fill:#F7BC34;}
	.st6{fill:#1E234F;}
	.st7{fill:#181C4D;}
	.st8{fill-rule:evenodd;clip-rule:evenodd;fill:#FEC340;}
	.st9{fill-rule:evenodd;clip-rule:evenodd;fill:#181C4D;}
	.st10{fill-rule:evenodd;clip-rule:evenodd;fill:url(#SVGID_00000170267990734699597590000002817905725858800315_);}
	.st11{fill-rule:evenodd;clip-rule:evenodd;fill:url(#SVGID_00000053510239168600192350000001694592330807119502_);}
	.st12{fill-rule:evenodd;clip-rule:evenodd;fill:url(#SVGID_00000047021224999069394310000014807072409993102270_);}
	.st13{fill-rule:evenodd;clip-rule:evenodd;fill:url(#SVGID_00000070109061371237512040000011531838228477090983_);}
	.st14{fill-rule:evenodd;clip-rule:evenodd;fill:url(#SVGID_00000088829240322529043460000001738733146609406349_);}
	.st15{fill-rule:evenodd;clip-rule:evenodd;fill:url(#SVGID_00000178181251183739276120000003724381311671101087_);}
</style>
  <g>
    <g>
      <linearGradient id="SVGID_1_" gradientUnits="userSpaceOnUse" x1="109.7" y1="696.7989" x2="109.7" y2="774.9753" gradientTransform="matrix(1 0 0 1 0 -680.01)">
        <stop offset="0" style="stop-color:#F7BC34" />
        <stop offset="9.739999e-02" style="stop-color:#F0B637" />
        <stop offset="0.206" style="stop-color:#DFA93E" />
        <stop offset="0.32" style="stop-color:#C79648" />
        <stop offset="0.4378" style="stop-color:#A77F50" />
        <stop offset="0.5586" style="stop-color:#836655" />
        <stop offset="0.6817" style="stop-color:#5D4B55" />
        <stop offset="0.8046" style="stop-color:#333051" />
        <stop offset="0.8579" style="stop-color:#1E234F" />
      </linearGradient>
      <path class="st0" d="M109.7,0L76.3,12.2v91.2l6.6,6.6H136l7.1-7.1V12.2L109.7,0z M139.5,95L139.5,95l-5.3-2.4l-24.4-11l-24.4,11
			L80,95l0,0V14.6l2.5-0.9l26-9.4l1.3-0.5l1.3,0.5l26,9.4l2.5,0.9L139.5,95L139.5,95z" />
    </g>
    <g>
      <rect x="80" y="94.3" class="st1" width="59.5" height="10.3" />
      <g class="st2">
        <path class="st3" d="M97.9,95v5.8c0,1.1,0.8,2,1.9,2c1,0,1.9-0.8,1.9-2V95h2.1v5.9c0,2.1-1.3,3.9-4,3.9s-4-1.8-4-3.9V95H97.9z" />
        <path class="st3" d="M113,95.7l-1.4,1.6c-0.3-0.4-1-0.6-1.5-0.6c-0.6,0-1.4,0.3-1.4,1c0,0.8,1,1,2.1,1.3s2.3,0.9,2.3,2.6
				c0,2.2-1.7,3.1-3.7,3.1c-1.2,0-2.3-0.3-3.2-1.2l1.5-1.6c0.4,0.6,1.1,0.9,1.8,0.9c0.6,0,1.5-0.3,1.5-1c0-0.8-1-1-2.1-1.4
				c-1.2-0.4-2.4-0.9-2.4-2.6c0-2,1.8-3.1,3.6-3.1C111.1,94.8,112.2,95,113,95.7z" />
        <path class="st3" d="M120.5,95l4.1,9.5h-2.4l-0.8-2h-3.7l-0.8,2h-2.3l4.1-9.5H120.5z M118.4,100.7h2.3l-1.2-3L118.4,100.7z" />
      </g>
    </g>
    <rect x="88.2" y="19" class="st4" width="45.7" height="55.6" />
    <g>
      <path class="st5" d="M116,38.4h-1.4V41h1.3c1.1,0,1.9-0.3,1.9-1.3S117,38.4,116,38.4z" />
      <path class="st5" d="M109.8,32.6c2,0,3.5-1.5,3.5-3.6c0-2-1.4-3.5-3.5-3.5s-3.4,1.5-3.4,3.5C106.3,31.1,107.8,32.6,109.8,32.6z" />
      <path class="st5" d="M96.2,49.8c0-0.8-0.7-1.1-1.6-1.1h-1.1V51h1C95.6,50.9,96.2,50.6,96.2,49.8z" />
      <path class="st5" d="M108,38.4c-1.8,0-3,1.4-3,3.1c0,1.7,1.2,3.1,3,3.1c1.9,0,3.1-1.4,3.1-3.1C111.1,39.8,109.9,38.4,108,38.4z" />
      <polygon class="st5" points="105,52.3 107.6,52.3 106.3,49 		" />
      <path class="st5" d="M122.2,25.4h-1.3v2.8h1.2c1.1,0,2.1-0.3,2.1-1.5C124.2,25.6,123.2,25.4,122.2,25.4z" />
      <path class="st5" d="M109.7,7.9l-26.1,8.8v72.6l26-11.8l26,11.8V16.7L109.7,7.9z M109.8,23.1c3.8,0,6.6,2.3,6.6,6
			c0,3.6-2.8,6.1-6.6,6.1c-3.8,0-6.6-2.5-6.6-6.1C103.2,25.4,106,23.1,109.8,23.1z M119.2,45.5h-1.4l-2-3.6h-1.2v3.6h-1.1v-8h2.6
			c1.6,0,2.9,0.6,2.9,2.2c0,1.2-0.8,1.9-2,2.1L119.2,45.5z M121.3,50.8v0.8H118V54h3.7v0.9H117v-7h4.5v0.9H118v2.1L121.3,50.8
			L121.3,50.8z M108,45.5c-2.4,0-4.2-1.7-4.2-4c0-2.4,1.8-4,4.2-4c2.5,0,4.3,1.6,4.3,4C112.3,43.8,110.5,45.5,108,45.5z M109.8,54.9
			h-1.1l-0.7-1.7h-3.3l-0.7,1.7h-1.1l3-7h0.9L109.8,54.9z M113.5,47.8c1,0,2,0.4,2.5,1l-0.8,0.6c-0.3-0.5-1-0.8-1.7-0.8
			c-1.6,0-2.7,1.2-2.7,2.7s1,2.7,2.6,2.7c0.8,0,1.5-0.3,1.9-0.9l0.8,0.5c-0.5,0.7-1.4,1.2-2.7,1.2c-2.2,0-3.7-1.5-3.7-3.6
			C109.8,49.2,111.4,47.8,113.5,47.8z M92.6,23.1h9.7v2.5h-3.4v9.6H96v-9.6h-3.4V23.1L92.6,23.1z M93.8,37.5l1.8,6.4l0,0l1.9-6.4
			h1.2l1.9,6.4l0,0l1.8-6.4h1.2l-2.4,8H100L98,39l0,0l-2,6.5h-1.2l-2.4-8H93.8z M102.4,54v0.9h-4.1v-7h1V54H102.4z M92.6,47.8h2.1
			c1.5,0,2.5,0.6,2.5,2s-1.1,2-2.6,2h-1.1v3.1h-1L92.6,47.8L92.6,47.8z M127.1,57.5H92.6V57h34.6L127.1,57.5L127.1,57.5z
			 M124.4,51.6c-0.9-0.3-1.8-0.7-1.8-1.9c0-1.3,1.2-1.9,2.4-1.9c0.8,0,1.6,0.3,2,0.8l-0.7,0.6c-0.3-0.4-0.8-0.6-1.4-0.6
			s-1.4,0.3-1.4,1.1c0,0.7,0.6,0.9,1.4,1.2c0.9,0.3,2.1,0.6,2.1,2s-1.2,2-2.4,2c-0.9,0-1.8-0.3-2.3-1l0.8-0.6
			c0.3,0.5,0.9,0.8,1.6,0.8s1.4-0.4,1.4-1.1C126.1,52.1,125.3,51.9,124.4,51.6z M125.5,45.5l-3.8-4.2l0,0v4.2h-1.1v-8h1.1V41l0,0
			l3.6-3.5h1.6l-3.9,3.7l4.1,4.4h-1.6V45.5z M122.4,30.6H121v4.6h-3V23.1h4.4c2.6,0,4.7,1,4.7,3.7C127.2,29.6,124.9,30.6,122.4,30.6
			z" />
    </g>
    <g>
      <g>
        <path class="st6" d="M98.4,66l2.9-2.6c0.3-0.3,0.7-0.6,0.7-1c0-0.5-0.4-0.8-0.9-0.8c-0.6,0-0.9,0.4-1,0.9l-1.6-0.1
				c0.1-1.5,1.2-2.3,2.6-2.3s2.4,0.7,2.4,2.2c0,1-0.4,1.5-1,2l-2.3,1.9h3.3v1.4h-5.2L98.4,66L98.4,66z" />
        <path class="st6" d="M107.2,60.1c2.2,0,2.8,2.1,2.8,3.8c0,1.8-0.6,3.8-2.8,3.8c-2.2,0-2.8-2.1-2.8-3.8
				C104.4,62.1,105,60.1,107.2,60.1z M107.2,66.3c1.1,0,1.2-1.6,1.2-2.4c0-0.8-0.1-2.4-1.2-2.4s-1.2,1.6-1.2,2.4
				C106,64.7,106.1,66.3,107.2,66.3z" />
        <path class="st6" d="M110.8,66l2.9-2.6c0.3-0.3,0.7-0.6,0.7-1c0-0.5-0.4-0.8-0.9-0.8c-0.6,0-0.9,0.4-1,0.9l-1.6-0.1
				c0.1-1.5,1.2-2.3,2.6-2.3s2.4,0.7,2.4,2.2c0,1-0.4,1.5-1,2l-2.3,1.9h3.3v1.4h-5.2L110.8,66L110.8,66z" />
        <path class="st6" d="M119.6,62l-1.5,1.3l-0.9-1l2.4-2h1.5v7.4h-1.5V62L119.6,62z" />
      </g>
    </g>
  </g>
  <g>
    <g>
      <rect y="75.6" class="st7" width="59.2" height="34.4" />
      <path class="st8" d="M30.1,0L0,10.1v82.8l29.6-13.6l29.6,13.4V10.1L30.1,0z" />
      <path class="st9" d="M29.7,17.6c4.3,0,7.5,2.6,7.5,6.8c0,4.1-3.2,6.9-7.5,6.9c-4.3,0-7.5-2.8-7.5-6.9
			C22.2,20.2,25.4,17.6,29.7,17.6z" />
      <path class="st9" d="M40.4,43.1h-1.5L36.5,39h-1.4v4.1h-1.3v-9.1h2.9c1.8,0,3.3,0.7,3.3,2.5c0,1.3-0.9,2.2-2.2,2.4L40.4,43.1z" />
      <polygon class="st9" points="42.8,49.1 42.8,50.1 39,50.1 39,52.7 43.2,52.7 43.2,53.7 37.9,53.7 37.9,45.7 43.1,45.7 43.1,46.7 
			39,46.7 39,49.1 		" />
      <path class="st9" d="M27.7,43.1c-2.8,0-4.8-1.9-4.8-4.6c0-2.7,2.1-4.6,4.8-4.6c2.8,0,4.9,1.8,4.9,4.6
			C32.5,41.2,30.5,43.1,27.7,43.1z" />
      <polygon class="st9" points="29.7,53.7 28.4,53.7 27.6,51.8 23.8,51.8 23,53.7 21.8,53.7 25.2,45.7 26.3,45.7 		" />
      <path class="st9" d="M33.9,45.7c1.1,0,2.3,0.4,2.9,1.2l-0.9,0.6c-0.4-0.5-1.2-0.9-2-0.9c-1.9,0-3,1.4-3,3.1c0,1.7,1.2,3.1,3,3.1
			c0.9,0,1.7-0.4,2.1-1l0.9,0.6c-0.6,0.8-1.6,1.4-3,1.4c-2.4,0-4.2-1.7-4.2-4C29.7,47.3,31.5,45.7,33.9,45.7z" />
      <polygon class="st9" points="10.1,17.6 21.2,17.6 21.2,20.4 17.3,20.4 17.3,31.3 14,31.3 14,20.4 10.1,20.4 		" />
      <polygon class="st9" points="11.5,33.9 13.5,41.2 13.5,41.2 15.7,33.9 17.1,33.9 19.2,41.2 19.2,41.2 21.3,33.9 22.6,33.9 
			19.9,43.1 18.6,43.1 16.4,35.7 16.3,35.7 14.1,43.1 12.8,43.1 10.1,33.9 		" />
      <polygon class="st9" points="21.2,52.7 21.2,53.7 16.6,53.7 16.6,45.7 17.7,45.7 17.7,52.7 		" />
      <path class="st9" d="M10.1,45.7h2.4c1.7,0,2.9,0.7,2.9,2.2c0,1.6-1.3,2.3-2.9,2.3h-1.3v3.5h-1.1V45.7z" />
      <path class="st9" d="M46.3,50c-1-0.3-2.1-0.7-2.1-2.1c0-1.5,1.4-2.2,2.7-2.2c0.9,0,1.8,0.3,2.3,0.9l-0.8,0.7
			c-0.3-0.4-0.9-0.7-1.6-0.7c-0.7,0-1.6,0.4-1.6,1.2c0,0.8,0.7,1.1,1.6,1.3c1.1,0.3,2.3,0.7,2.3,2.2c0,1.6-1.3,2.3-2.8,2.3
			c-1,0-2-0.4-2.6-1.1l0.9-0.7c0.4,0.5,1,0.9,1.8,0.9c0.7,0,1.6-0.4,1.6-1.3C48.2,50.6,47.4,50.3,46.3,50z" />
      <polygon class="st9" points="47.6,43.1 43.3,38.4 43.3,38.4 43.3,43.1 42,43.1 42,34 43.3,34 43.3,38 43.3,38 47.4,34 49.2,34 
			44.7,38.1 49.4,43.1 		" />
      <path class="st9" d="M44,26.1h-1.6v5.2H39V17.6h5c3,0,5.4,1.1,5.4,4.2C49.4,25,46.9,26.1,44,26.1z" />
      <g>
        <linearGradient id="SVGID_00000035507934942614377180000010790397115678056839_" gradientUnits="userSpaceOnUse" x1="35.178" y1="36.4854" x2="38.7923" y2="36.4854">
          <stop offset="0" style="stop-color:#FDC140" />
          <stop offset="0.5969" style="stop-color:#FCB840" />
          <stop offset="1" style="stop-color:#FAAF40" />
        </linearGradient>
        <path style="fill-rule:evenodd;clip-rule:evenodd;fill:url(#SVGID_00000035507934942614377180000010790397115678056839_);" d="
				M36.7,35h-1.6v2.9h1.5c1.2,0,2.1-0.4,2.1-1.5S37.8,35,36.7,35z" />
        <linearGradient id="SVGID_00000146494506550669907830000005568373412360996796_" gradientUnits="userSpaceOnUse" x1="25.7851" y1="24.4215" x2="33.6397" y2="24.4215">
          <stop offset="0" style="stop-color:#FDC140" />
          <stop offset="0.5969" style="stop-color:#FCB840" />
          <stop offset="1" style="stop-color:#FAAF40" />
        </linearGradient>
        <path style="fill-rule:evenodd;clip-rule:evenodd;fill:url(#SVGID_00000146494506550669907830000005568373412360996796_);" d="
				M29.7,28.4c2.3,0,3.9-1.7,3.9-4.1c0-2.3-1.6-4-3.9-4c-2.3,0-3.9,1.7-3.9,4C25.8,26.7,27.4,28.4,29.7,28.4z" />
        <linearGradient id="SVGID_00000085242862360599719960000012119980349211688844_" gradientUnits="userSpaceOnUse" x1="11.2295" y1="47.9683" x2="14.2759" y2="47.9683">
          <stop offset="0" style="stop-color:#FDC140" />
          <stop offset="0.5969" style="stop-color:#FCB840" />
          <stop offset="1" style="stop-color:#FAAF40" />
        </linearGradient>
        <path style="fill-rule:evenodd;clip-rule:evenodd;fill:url(#SVGID_00000085242862360599719960000012119980349211688844_);" d="
				M14.3,48c0-1-0.8-1.3-1.8-1.3h-1.2v2.6h1.2C13.5,49.3,14.3,48.9,14.3,48z" />
        <linearGradient id="SVGID_00000178892607742967211440000000069382543287349134_" gradientUnits="userSpaceOnUse" x1="24.2457" y1="38.5035" x2="31.1647" y2="38.5035">
          <stop offset="0" style="stop-color:#FDC140" />
          <stop offset="0.5969" style="stop-color:#FCB840" />
          <stop offset="1" style="stop-color:#FAAF40" />
        </linearGradient>
        <path style="fill-rule:evenodd;clip-rule:evenodd;fill:url(#SVGID_00000178892607742967211440000000069382543287349134_);" d="
				M27.7,35c-2.1,0-3.4,1.6-3.4,3.5c0,1.9,1.4,3.5,3.4,3.5c2.1,0,3.5-1.5,3.5-3.5C31.2,36.6,29.8,35,27.7,35z" />
        <linearGradient id="SVGID_00000137122484224073905660000001291459035916123520_" gradientUnits="userSpaceOnUse" x1="24.216" y1="48.8992" x2="27.2061" y2="48.8992">
          <stop offset="0" style="stop-color:#FDC140" />
          <stop offset="0.5969" style="stop-color:#FCB840" />
          <stop offset="1" style="stop-color:#FAAF40" />
        </linearGradient>
        <polygon style="fill-rule:evenodd;clip-rule:evenodd;fill:url(#SVGID_00000137122484224073905660000001291459035916123520_);" points="
				24.2,50.8 27.2,50.8 25.7,47 			" />
        <linearGradient id="SVGID_00000109001044400431546980000006223645240871108540_" gradientUnits="userSpaceOnUse" x1="42.3494" y1="21.8612" x2="46.1313" y2="21.8612">
          <stop offset="0" style="stop-color:#FDC140" />
          <stop offset="0.5969" style="stop-color:#FCB840" />
          <stop offset="1" style="stop-color:#FAAF40" />
        </linearGradient>
        <path style="fill-rule:evenodd;clip-rule:evenodd;fill:url(#SVGID_00000109001044400431546980000006223645240871108540_);" d="
				M43.8,20.2h-1.5v3.2h1.4c1.2,0,2.4-0.4,2.4-1.7C46.1,20.5,45,20.2,43.8,20.2z" />
      </g>
      <rect x="10.1" y="56.2" class="st9" width="39.3" height="0.5" />
    </g>
    <g>
      <path class="st7" d="M16.4,66l3.2-2.9c0.2-0.1,0.3-0.3,0.5-0.5c0.2-0.2,0.2-0.4,0.2-0.7c0-0.3-0.1-0.5-0.3-0.7
			c-0.2-0.2-0.4-0.2-0.7-0.2c-0.3,0-0.6,0.1-0.8,0.3c-0.2,0.2-0.3,0.5-0.3,0.7L16.5,62c0-0.4,0.1-0.8,0.3-1.1
			c0.2-0.3,0.4-0.6,0.6-0.8c0.3-0.2,0.6-0.4,0.9-0.5c0.3-0.1,0.7-0.2,1.1-0.2c0.4,0,0.7,0.1,1,0.2c0.3,0.1,0.6,0.3,0.9,0.5
			c0.2,0.2,0.4,0.5,0.6,0.8c0.1,0.3,0.2,0.7,0.2,1.1c0,0.3,0,0.5-0.1,0.7c-0.1,0.2-0.1,0.4-0.2,0.6c-0.1,0.2-0.2,0.3-0.3,0.5
			c-0.1,0.1-0.3,0.3-0.4,0.4l-2.5,2.2h3.7v1.5h-5.8V66z" />
      <path class="st7" d="M23.1,63.8c0-0.5,0-1,0.1-1.5c0.1-0.5,0.2-1,0.5-1.4c0.2-0.4,0.5-0.7,0.9-1c0.4-0.3,0.9-0.4,1.5-0.4
			c0.6,0,1.1,0.1,1.5,0.4c0.4,0.3,0.7,0.6,0.9,1c0.2,0.4,0.4,0.9,0.5,1.4c0.1,0.5,0.1,1,0.1,1.5s0,1-0.1,1.5c-0.1,0.5-0.2,1-0.5,1.4
			c-0.2,0.4-0.5,0.7-0.9,1c-0.4,0.3-0.9,0.4-1.5,0.4c-0.6,0-1.1-0.1-1.5-0.4c-0.4-0.3-0.7-0.6-0.9-1c-0.2-0.4-0.4-0.9-0.5-1.4
			C23.2,64.7,23.1,64.2,23.1,63.8z M24.9,63.8c0,0.2,0,0.5,0,0.8c0,0.3,0.1,0.6,0.2,0.9c0.1,0.3,0.2,0.5,0.4,0.7
			c0.2,0.2,0.4,0.3,0.7,0.3c0.3,0,0.6-0.1,0.7-0.3c0.2-0.2,0.3-0.4,0.4-0.7c0.1-0.3,0.1-0.6,0.2-0.9c0-0.3,0-0.6,0-0.8
			c0-0.2,0-0.5,0-0.8c0-0.3-0.1-0.6-0.2-0.9c-0.1-0.3-0.2-0.5-0.4-0.7c-0.2-0.2-0.4-0.3-0.7-0.3c-0.3,0-0.6,0.1-0.7,0.3
			c-0.2,0.2-0.3,0.4-0.4,0.7c-0.1,0.3-0.1,0.6-0.2,0.9C24.9,63.3,24.9,63.5,24.9,63.8z" />
      <path class="st7" d="M30.2,66l3.2-2.9c0.2-0.1,0.3-0.3,0.5-0.5c0.2-0.2,0.2-0.4,0.2-0.7c0-0.3-0.1-0.5-0.3-0.7
			c-0.2-0.2-0.4-0.2-0.7-0.2c-0.3,0-0.6,0.1-0.8,0.3c-0.2,0.2-0.3,0.5-0.3,0.7L30.3,62c0-0.4,0.1-0.8,0.3-1.1
			c0.2-0.3,0.4-0.6,0.6-0.8c0.3-0.2,0.6-0.4,0.9-0.5c0.3-0.1,0.7-0.2,1.1-0.2c0.4,0,0.7,0.1,1,0.2c0.3,0.1,0.6,0.3,0.9,0.5
			c0.2,0.2,0.4,0.5,0.6,0.8c0.1,0.3,0.2,0.7,0.2,1.1c0,0.3,0,0.5-0.1,0.7c-0.1,0.2-0.1,0.4-0.2,0.6c-0.1,0.2-0.2,0.3-0.3,0.5
			c-0.1,0.1-0.3,0.3-0.4,0.4l-2.5,2.2H36v1.5h-5.8V66z" />
      <path class="st7" d="M37.1,66l3.2-2.9c0.2-0.1,0.3-0.3,0.5-0.5C41,62.5,41,62.2,41,62c0-0.3-0.1-0.5-0.3-0.7
			c-0.2-0.2-0.4-0.2-0.7-0.2c-0.3,0-0.6,0.1-0.8,0.3c-0.2,0.2-0.3,0.5-0.3,0.7L37.2,62c0-0.4,0.1-0.8,0.3-1.1
			c0.2-0.3,0.4-0.6,0.6-0.8c0.3-0.2,0.6-0.4,0.9-0.5c0.3-0.1,0.7-0.2,1.1-0.2c0.4,0,0.7,0.1,1,0.2c0.3,0.1,0.6,0.3,0.9,0.5
			c0.2,0.2,0.4,0.5,0.6,0.8c0.1,0.3,0.2,0.7,0.2,1.1c0,0.3,0,0.5-0.1,0.7c-0.1,0.2-0.1,0.4-0.2,0.6c-0.1,0.2-0.2,0.3-0.3,0.5
			c-0.1,0.1-0.3,0.3-0.4,0.4l-2.5,2.2h3.7v1.5h-5.8V66z" />
    </g>
    <g>
      <g>
        <path class="st3" d="M37.6,104.7c0,1.1,0,2.1-1.3,2.1c-1.1,0-1.2-0.9-1.2-1.7v-8.5c0-1,0-1.3,0.1-1.6c0.3-0.8,1-0.8,1.2-0.8
				c1.2,0,1.2,1.1,1.2,2.4V104.7z M33.1,104.8c0,0.8,0,1.5,0.4,2.2c0.8,1.5,2.4,1.5,2.8,1.5c3.4,0,3.4-2.6,3.4-3.7v-7.5
				c0-1.9,0-3-0.9-4c-0.6-0.7-1.5-0.9-2.4-0.9c-1,0-1.9,0.4-2.6,1.1c-0.7,0.8-0.8,1.9-0.8,3.3V104.8z M27.3,108.4h5.2v-2h-3.1v-5.3
				h2.8v-1.9h-2.8v-4.6h3.1v-2h-5.2V108.4z M19.5,104.6c0,0.8,0,1.8,0.5,2.6c0.6,1,1.7,1.4,2.8,1.4c3,0,3.5-2.3,3.5-4.1v-2.7h-2.1
				v2.9c0,1,0,2-1.3,2c-1.3,0-1.3-0.9-1.3-1.8v-8.7c0-0.8,0-2,1.3-2c1.3,0,1.3,1.1,1.3,1.6v2.4h2.1v-2c0-1.1,0-3.9-3.3-3.9
				c-3.5,0-3.5,3.1-3.5,4.5V104.6z" />
        <path class="st3" d="M38.3,90.1h-0.6V91c0,0.3,0,1.1,1,1.1c0.2,0,0.5,0,0.8-0.4c0.2-0.2,0.2-0.6,0.2-0.9c0-0.7-0.3-1.1-0.6-1.6
				c-0.5-0.7-0.7-1-0.7-1.5c0-0.3,0-0.5,0.4-0.5c0.3,0,0.3,0.2,0.3,0.4v0.9h0.6v-0.9c0-0.5-0.2-0.9-0.9-0.9c-0.4,0-0.7,0.1-0.9,0.4
				c-0.1,0.2-0.2,0.4-0.2,0.7c0,0.7,0.3,1.1,0.7,1.7c0.5,0.7,0.6,0.9,0.6,1.4c0,0.3,0,0.6-0.3,0.6c-0.4,0-0.4-0.3-0.4-0.5V90.1z
				 M35.2,90.9c0,0.3,0,1.2,1.1,1.2c1.1,0,1.1-1,1.1-1.4v-4h-0.7v4c0,0.4,0,0.7-0.4,0.7c-0.4,0-0.4-0.4-0.4-0.7v-4.1h-0.7V90.9z
				 M33.9,89.5c0.3,0,0.3,0.1,0.3,0.9c0,0.1,0,0.7,0,0.8c0,0.1-0.1,0.1-0.3,0.1h-0.4v-1.8H33.9z M33.5,87.4c0.5,0,0.5,0,0.6,0
				c0.1,0,0.1,0.1,0.1,0.3c0,0.1,0,0.3,0,0.4c0,0.2,0,0.6-0.1,0.7C34.1,89,34,89,33.5,89V87.4z M32.8,92h1.1c0.9,0,1-0.3,1-1.3
				c0-0.9,0-1,0-1.1c-0.1-0.4-0.3-0.4-0.5-0.4v0c0.5,0,0.5-0.3,0.5-1.1c0-1,0-1.3-0.8-1.3h-1.2V92z M29.2,86.7V92h0.6v-3.1
				c0-0.4,0-0.8,0-1.2h0.1c0,0.3,0,0.6,0.1,1.1l0.5,3.2H31l0.5-3.4c0-0.1,0.1-0.8,0.1-0.9h0.1c0,0.3,0,0.5,0,0.8V92h0.6v-5.3h-1
				l-0.4,2.7c-0.1,0.4-0.1,0.8-0.1,1.1h-0.1c0-0.5,0-0.6-0.1-1.1l-0.4-2.7H29.2z M26.5,90.9c0,0.3,0,1.2,1.1,1.2
				c1.1,0,1.1-1,1.1-1.4v-4h-0.7v4c0,0.4,0,0.7-0.4,0.7c-0.4,0-0.4-0.4-0.4-0.7v-4.1h-0.7V90.9z M24.7,86.7V92h1.8v-0.6h-1.1v-4.6
				H24.7z M23.6,90.8c0,0.4,0,0.7-0.4,0.7c-0.4,0-0.4-0.3-0.4-0.6v-2.8c0-0.3,0-0.4,0-0.5c0.1-0.3,0.3-0.3,0.4-0.3
				c0.4,0,0.4,0.4,0.4,0.8V90.8z M22.1,90.8c0,0.3,0,0.5,0.1,0.7c0.3,0.5,0.8,0.5,0.9,0.5c1.1,0,1.1-0.8,1.1-1.2v-2.5
				c0-0.6,0-1-0.3-1.3c-0.2-0.2-0.5-0.3-0.8-0.3c-0.3,0-0.6,0.1-0.9,0.4c-0.2,0.3-0.3,0.6-0.3,1.1V90.8z M19.5,90.7
				c0,0.3,0,0.6,0.2,0.9c0.2,0.3,0.6,0.5,0.9,0.5c1,0,1.2-0.8,1.2-1.4v-0.9h-0.7v1c0,0.3,0,0.7-0.4,0.7c-0.4,0-0.4-0.3-0.4-0.6V88
				c0-0.3,0-0.7,0.4-0.7c0.4,0,0.4,0.4,0.4,0.5v0.8h0.7V88c0-0.4,0-1.3-1.1-1.3c-1.2,0-1.2,1-1.2,1.5V90.7z" />
      </g>
    </g>
  </g>
</svg>